<?xml version="1.0" standalone="no"?>
<!DOCTYPE svg PUBLIC "-//W3C//DTD SVG 20010904//EN"
 "http://www.w3.org/TR/2001/REC-SVG-20010904/DTD/svg10.dtd">
<svg version="1.0" xmlns="http://www.w3.org/2000/svg"
 width="1223.000000pt" height="1223.000000pt" viewBox="0 0 1223.000000 1223.000000"
 preserveAspectRatio="xMidYMid meet">

<g transform="translate(0.000000,1223.000000) scale(0.100000,-0.100000)"
fill="#000000" stroke="none">
<path d="M2610 8155 l0 -1755 1755 0 1755 0 0 705 0 705 340 0 340 0 0 -650 0
-650 410 0 410 0 0 1575 0 1575 -410 0 -410 0 0 -605 0 -605 -340 0 -340 0 0
730 0 730 -1755 0 -1755 0 0 -1755z"/>
<path d="M8280 8085 l0 -1575 900 0 900 0 0 350 0 350 -490 0 -490 0 0 1225 0
1225 -410 0 -410 0 0 -1575z"/>
<path d="M884 6921 c-92 -23 -192 -104 -247 -204 -52 -91 -73 -158 -88 -271
-12 -89 -14 -95 -38 -101 -52 -12 -197 -69 -214 -84 -16 -14 -17 -15 -1 -24
21 -12 169 -15 207 -4 l28 8 -6 -118 c-7 -115 -8 -120 -52 -200 -63 -118 -74
-160 -80 -314 -5 -123 -3 -144 17 -210 12 -40 32 -94 45 -119 32 -63 173 -270
245 -361 l61 -76 0 -135 c0 -129 -7 -184 -36 -293 -7 -27 -16 -79 -20 -115 -5
-59 -3 -74 26 -145 26 -66 44 -94 108 -160 42 -44 113 -128 158 -186 45 -58
88 -111 97 -118 12 -10 31 -9 99 3 46 9 118 16 160 16 l77 0 17 35 c15 31 15
43 4 97 -14 68 -40 113 -72 123 -11 4 -42 1 -70 -5 l-49 -12 -69 56 c-38 30
-79 71 -91 91 -22 35 -22 42 -15 192 6 146 9 161 47 266 22 62 45 130 50 152
6 22 12 41 13 43 2 2 24 -11 51 -28 75 -47 208 -216 265 -335 59 -126 68 -168
76 -378 l6 -170 88 -101 c94 -108 130 -141 275 -251 141 -107 195 -136 277
-150 84 -15 248 -13 329 4 50 11 58 16 74 49 22 47 30 123 15 151 -11 20 -19
21 -109 20 -91 -2 -104 1 -199 37 -89 34 -112 49 -192 119 l-90 80 -36 102
c-40 117 -41 126 -19 144 14 11 26 10 81 -9 35 -13 113 -28 173 -34 l108 -11
6 -36 c3 -20 6 -95 6 -166 0 -147 6 -164 68 -192 43 -19 214 -21 732 -11 168
4 361 3 430 -2 69 -5 226 -10 350 -12 218 -3 226 -2 268 20 40 21 42 25 42 68
0 25 -7 58 -15 74 l-15 29 67 -26 c38 -14 84 -30 103 -35 55 -16 167 -3 244
27 l68 28 77 -26 c42 -15 110 -35 151 -46 41 -10 100 -27 130 -37 58 -19 386
-182 482 -241 83 -50 269 -136 371 -172 129 -45 320 -80 507 -93 256 -17 483
14 686 96 380 151 596 444 635 861 31 332 -65 605 -277 788 -144 123 -308 203
-617 301 -212 67 -309 109 -367 162 -53 48 -72 91 -71 165 1 221 286 329 585
222 92 -33 115 -45 214 -110 46 -30 85 -53 86 -52 21 25 316 623 313 633 -7
19 -220 110 -365 156 -400 128 -778 133 -1081 13 -253 -99 -459 -307 -548
-551 -64 -176 -85 -440 -48 -617 43 -208 156 -371 341 -491 99 -65 132 -79
349 -154 545 -186 625 -241 625 -437 0 -112 -80 -219 -199 -264 -70 -27 -229
-37 -327 -20 -160 28 -327 110 -495 242 l-87 67 -78 -23 c-81 -24 -151 -47
-334 -110 -117 -41 -132 -45 -351 -104 -150 -39 -207 -50 -184 -33 59 41 76
166 30 221 -27 31 -127 92 -205 125 -169 72 -166 69 -223 158 -80 122 -113
158 -256 278 -71 60 -131 116 -135 125 -3 9 -6 102 -6 206 0 108 -4 189 -9
189 -5 0 -18 -11 -28 -24 -77 -100 -210 -248 -245 -272 -88 -61 -84 -62 -178
28 -96 92 -124 108 -240 137 -47 12 -101 29 -120 39 -51 25 -193 135 -280 216
-60 56 -102 84 -214 141 l-139 70 -103 150 c-152 224 -152 224 -296 338 -184
148 -274 201 -483 284 -56 22 -258 63 -311 63 -32 0 -35 9 -18 69 15 49 15 56
-9 147 -30 111 -59 165 -120 221 -52 48 -96 72 -208 113 -81 30 -109 34 -165
21z m220 -72 c113 -55 188 -122 214 -192 32 -85 45 -164 37 -233 l-7 -64 -118
0 -118 0 19 51 c31 80 3 149 -58 149 -26 0 -75 -55 -101 -112 -25 -53 -27 -81
-12 -125 11 -29 12 -30 55 -22 24 5 70 15 102 23 48 13 81 14 183 6 429 -33
650 -132 978 -437 48 -45 112 -123 185 -228 125 -177 136 -187 322 -285 66
-34 121 -72 160 -110 33 -32 107 -92 164 -134 85 -62 119 -80 190 -102 180
-56 190 -61 278 -152 l83 -84 45 19 c61 24 125 79 226 193 l84 94 3 -159 3
-159 33 -40 c18 -23 82 -81 142 -131 117 -96 145 -127 225 -248 l52 -78 166
-83 c91 -46 174 -93 184 -104 19 -20 18 -21 -17 -28 -51 -9 -62 -34 -41 -93
10 -25 26 -53 37 -61 25 -21 17 -36 -50 -94 l-57 -48 -65 4 c-46 4 -90 16
-148 41 -95 42 -93 42 -86 23 5 -14 103 -66 152 -80 12 -4 22 -11 22 -16 0
-14 -29 -20 -99 -20 -52 0 -90 8 -167 36 -128 46 -235 55 -362 29 -51 -11
-102 -15 -122 -11 -45 8 -151 58 -196 92 -58 44 -133 74 -239 96 -55 11 -117
23 -138 28 -36 7 -73 31 -90 58 -16 25 -55 13 -82 -25 -40 -60 -35 -73 31 -73
115 0 301 -23 376 -46 47 -14 96 -38 125 -60 85 -65 138 -84 244 -86 52 0 144
3 206 7 l112 8 29 -30 c19 -19 32 -45 37 -73 6 -38 5 -45 -16 -61 -36 -27
-144 -33 -365 -18 -212 13 -621 17 -1079 9 -274 -5 -281 -5 -321 17 l-41 22
-6 92 c-4 51 -7 151 -7 222 l0 130 40 73 c38 70 39 74 30 125 -13 69 -13 485
0 529 12 42 12 40 1 40 -19 0 -41 -85 -48 -181 -3 -57 -1 -175 7 -272 l12
-172 -36 -70 c-23 -45 -36 -84 -36 -109 l0 -39 -99 6 c-69 5 -119 15 -167 33
-38 14 -79 23 -93 21 l-24 -5 6 72 c4 39 13 111 22 159 8 48 13 98 10 110 -2
12 -7 81 -10 152 -3 81 -12 158 -25 205 -11 41 -20 93 -20 116 0 66 -12 134
-23 134 -16 0 -1 -182 23 -282 14 -61 20 -117 19 -180 -1 -51 2 -105 6 -120 4
-15 -1 -75 -11 -135 -10 -59 -18 -153 -18 -208 0 -85 5 -115 32 -201 31 -99
33 -103 104 -170 108 -102 132 -118 253 -159 95 -33 121 -38 188 -36 l77 1 0
-54 c0 -66 -17 -88 -85 -110 -68 -21 -224 -23 -298 -2 -136 38 -307 154 -470
321 -156 160 -149 145 -158 353 -8 193 -19 244 -73 358 -81 172 -199 304 -351
395 -132 79 -246 188 -320 305 -60 95 -80 152 -91 252 -7 65 -24 86 -24 30 1
-64 27 -195 46 -228 79 -139 211 -281 332 -359 39 -25 51 -38 47 -50 -27 -66
-71 -188 -91 -250 -21 -65 -24 -93 -24 -226 l0 -152 36 -54 c23 -36 56 -68 95
-93 56 -36 62 -38 115 -31 74 9 98 -7 113 -75 20 -94 17 -106 -34 -120 -24 -7
-54 -10 -65 -7 -12 3 -60 -1 -108 -9 l-86 -14 -39 38 c-22 20 -73 80 -115 132
-41 52 -101 122 -133 155 -49 50 -64 74 -88 143 l-28 82 23 110 c36 166 53
341 41 425 -10 67 -14 75 -90 170 -43 55 -117 164 -164 242 -83 139 -85 144
-105 255 -13 77 -17 133 -13 177 8 82 57 237 99 309 32 55 34 62 40 197 11
231 25 357 49 430 70 217 209 335 377 321 19 -2 75 -23 124 -47z m4 -331 c20
-20 14 -92 -11 -129 -21 -31 -76 -67 -104 -69 -21 0 -25 55 -7 101 36 91 87
132 122 97z m-572 -210 c-3 -13 -6 -31 -6 -40 0 -16 -11 -18 -87 -18 -54 0
-83 4 -77 9 10 10 153 70 168 71 4 0 6 -10 2 -22z m2614 -2293 l23 -25 -41 0
c-45 0 -47 2 -32 31 14 25 22 24 50 -6z"/>
<path d="M3891 4734 c-96 -69 -134 -106 -182 -176 -37 -54 -66 -150 -41 -134
7 4 12 13 12 20 0 21 48 106 83 146 18 20 68 66 112 102 l80 64 1 -59 c1 -32
8 -80 15 -105 14 -54 58 -146 65 -139 3 3 -8 49 -25 104 -17 54 -32 126 -34
161 -3 35 -6 64 -8 66 -2 2 -37 -20 -78 -50z"/>
<path d="M4308 4244 c-32 -17 -44 -53 -28 -83 12 -23 35 -26 77 -10 46 17 58
62 25 92 -23 21 -39 21 -74 1z"/>
<path d="M8280 4795 l0 -1575 900 0 900 0 0 350 0 350 -490 0 -490 0 0 1225 0
1225 -410 0 -410 0 0 -1575z"/>
</g>
</svg>
