<svg xmlns="http://www.w3.org/2000/svg" width="72" height="72" viewBox="0 0 72 72" fill="none">
  <path d="M36 61.999C50.3593 61.999 61.9999 50.3587 61.9999 35.9997C61.9999 21.6407 50.3593 10.0005 36 10.0005C21.6406 10.0005 10 21.6407 10 35.9997C10 50.3587 21.6406 61.999 36 61.999Z" fill="url(#paint0_radial_2569_14015)"/>
  <path opacity="0.25" d="M17.4482 20.8449C19.1732 19.0756 21.092 17.6041 23.1392 16.4321C24.2313 16.9614 25.3631 17.5605 26.5265 18.226C24.4843 19.8801 22.4876 21.7235 20.5728 23.7449L17.4482 20.8449Z" fill="black"/>
  <path opacity="0.25" d="M12.585 27.8029C13.6013 25.6741 14.926 23.6512 16.5619 21.7993L19.6865 24.6994C17.8132 26.7593 16.1235 28.8877 14.626 31.0473C13.8758 29.9366 13.1941 28.8526 12.585 27.8029Z" fill="black"/>
  <path opacity="0.25" d="M15.4189 32.194C16.9487 29.9472 18.6929 27.7294 20.6418 25.5854L26.6334 31.1466C24.3705 33.6124 22.2876 36.0967 20.4108 38.5445C18.5425 36.3811 16.87 34.2488 15.4189 32.194Z" fill="black"/>
  <path opacity="0.25" d="M21.2861 39.5441C23.1782 37.0629 25.2881 34.5391 27.5881 32.0327L35.1253 39.0284L28.1296 46.5657C25.6495 44.2374 23.3576 41.8776 21.2861 39.5441Z" fill="black"/>
  <path opacity="0.25" d="M29.085 47.4513L36.0806 39.9141L43.6179 46.9097C41.2896 49.3898 38.9299 51.6818 36.5964 53.7532C34.1151 51.8612 31.5914 49.7513 29.085 47.4513Z" fill="black"/>
  <path opacity="0.25" d="M10.0752 38.0762C10.1798 35.081 10.7998 32.0973 11.9402 29.269C12.5201 30.2276 13.1549 31.2092 13.8413 32.2084C12.4729 34.2867 11.2819 36.3882 10.2761 38.4802C10.2082 38.3454 10.1413 38.2108 10.0752 38.0762Z" fill="black"/>
  <path opacity="0.25" d="M11.0361 39.9261C12.0309 37.744 13.2371 35.5408 14.6464 33.3569C16.1027 35.3887 17.7641 37.4859 19.6062 39.6067C17.927 41.8587 16.4264 44.0738 15.1253 46.2083C13.5574 44.1354 12.1905 42.028 11.0361 39.9261Z" fill="black"/>
  <path opacity="0.25" d="M15.9814 47.31C17.2756 45.1528 18.7847 42.9019 20.4869 40.6055C22.5406 42.9068 24.8026 45.2292 27.2428 47.5197L21.6816 53.5114C19.5785 51.5184 17.6742 49.4367 15.9814 47.31Z" fill="black"/>
  <path opacity="0.25" d="M22.6357 54.3979L28.1969 48.4062C30.6627 50.6693 33.147 52.7521 35.5948 54.6288C33.4314 56.4971 31.299 58.1697 29.2442 59.6208C26.9974 58.0911 24.7797 56.3468 22.6357 54.3979Z" fill="black"/>
  <path d="M17.4482 17.8449C19.1732 16.0756 21.092 14.6041 23.1392 13.4321C24.2313 13.9614 25.3631 14.5605 26.5265 15.226C24.4843 16.8801 22.4876 18.7235 20.5728 20.7449L17.4482 17.8449Z" fill="#B592FF"/>
  <path d="M12.585 24.8029C13.6013 22.6741 14.926 20.6512 16.5619 18.7993L19.6865 21.6994C17.8132 23.7593 16.1235 25.8877 14.626 28.0473C13.8758 26.9366 13.1941 25.8526 12.585 24.8029Z" fill="#B592FF"/>
  <path d="M15.4189 29.1939C16.9487 26.9471 18.6929 24.7294 20.6418 22.5854L26.6334 28.1467C24.3705 30.6125 22.2876 33.0967 20.4108 35.5445C18.5425 33.3811 16.87 31.2487 15.4189 29.1939Z" fill="#A683FF"/>
  <path d="M21.2861 36.5441C23.1782 34.0629 25.2881 31.5391 27.5881 29.0327L35.1253 36.0284L28.1296 43.5657C25.6495 41.2374 23.3576 38.8776 21.2861 36.5441Z" fill="#9F7CFE"/>
  <path d="M29.084 44.4513L36.0797 36.9141L43.6169 43.9097C41.2887 46.3898 38.9289 48.6818 36.5954 50.7532C34.1142 48.8612 31.5904 46.7513 29.084 44.4513Z" fill="#7754D5"/>
  <path d="M10.0752 35.0762C10.1798 32.081 10.7998 29.0973 11.9402 26.269C12.5201 27.2276 13.1549 28.2092 13.8413 29.2084C12.4729 31.2867 11.2819 33.3882 10.2761 35.4802C10.2082 35.3454 10.1413 35.2108 10.0752 35.0762Z" fill="#9F7CFE"/>
  <path d="M11.0371 36.9261C12.0318 34.744 13.2381 32.5408 14.6474 30.3569C16.1037 32.3887 17.765 34.4859 19.6072 36.6067C17.928 38.8587 16.4273 41.0738 15.1263 43.2083C13.5583 41.1354 12.1915 39.028 11.0371 36.9261Z" fill="#9F7CFE"/>
  <path d="M10.2158 38.8424C10.2717 38.7032 10.3285 38.5638 10.3862 38.4243C11.5449 40.4357 12.889 42.4427 14.4083 44.4133C13.798 45.4611 13.238 46.4873 12.731 47.4866C11.3832 44.751 10.5429 41.8216 10.2158 38.8424Z" fill="#7754D5"/>
  <path d="M15.9814 44.31C17.2756 42.1528 18.7847 39.9019 20.4869 37.6055C22.5406 39.9068 24.8026 42.2292 27.2428 44.5197L21.6816 50.5114C19.5785 48.5184 17.6742 46.4367 15.9814 44.31Z" fill="#7754D5"/>
  <path d="M13.4834 48.9001C14.0128 47.8078 14.612 46.6758 15.2776 45.5122C16.9317 47.5543 18.7751 49.5511 20.7965 51.4658L17.896 54.5909C16.1268 52.866 14.6553 50.9473 13.4834 48.9001Z" fill="#7754D5"/>
  <path d="M22.6357 51.3979L28.1969 45.4062C30.6627 47.6693 33.147 49.7521 35.5948 51.6288C33.4314 53.4971 31.299 55.1697 29.2442 56.6208C26.9974 55.0911 24.7797 53.3468 22.6357 51.3979Z" fill="#7754D5"/>
  <path d="M30.4072 57.391C32.439 55.9347 34.5362 54.2733 36.657 52.4312C38.909 54.1104 41.1241 55.611 43.2586 56.9121C41.1856 58.48 39.0783 59.8469 36.9764 61.0013C34.7943 60.0065 32.5911 58.8003 30.4072 57.391Z" fill="#4F2CAE"/>
  <path d="M45.5635 56.7616C47.6056 55.1075 49.6023 53.2641 51.5171 51.2427L54.6415 54.1426C52.9166 55.9119 50.9978 57.3834 48.9506 58.5554C47.8585 58.0261 46.7268 57.427 45.5635 56.7616Z" fill="#4F2CAE"/>
  <path d="M18.8496 55.4771L21.7502 52.3521C23.8101 54.2253 25.9384 55.9149 28.098 57.4124C26.9872 58.1628 25.903 58.8446 24.8531 59.4538C22.7243 58.4375 20.7014 57.113 18.8496 55.4771Z" fill="#4F2CAE"/>
  <path d="M26.3203 60.0987C27.2791 59.5187 28.2608 58.8838 29.2602 58.1973C31.3385 59.5657 33.44 60.7567 35.532 61.7625C35.3972 61.8304 35.2625 61.8973 35.1279 61.9634C32.1326 61.859 29.1487 61.2391 26.3203 60.0987Z" fill="#4F2CAE"/>
  <path d="M38.4756 61.653C40.4869 60.4943 42.4939 59.1501 44.4646 57.6309C45.5121 58.241 46.5381 58.8009 47.5372 59.3078C44.8016 60.6556 41.8723 61.496 38.8933 61.8232C38.7542 61.7673 38.6149 61.7106 38.4756 61.653Z" fill="#4F2CAE"/>
  <g filter="url(#filter0_d_2569_14015)">
    <path d="M22.167 21.8732C23.9906 19.6216 25.9181 17.5613 27.9069 15.7085C30.158 16.8312 32.5194 18.1609 34.9411 19.6795C32.8063 21.9058 30.6666 24.3413 28.5725 26.9521L22.167 21.8732Z" fill="#B592FF"/>
  </g>
  <g filter="url(#filter1_d_2569_14015)">
    <path d="M39.0303 34.8293L32.6279 26.782C35.3019 24.6792 37.9788 22.7673 40.5967 21.0693C42.766 23.3122 44.9447 25.7769 47.0776 28.4268L39.0303 34.8293Z" fill="#B592FF"/>
  </g>
  <path d="M61.8155 37.2482C61.7109 40.3287 61.0632 43.3976 59.8669 46.2995C59.25 45.271 58.5691 44.2153 57.8281 43.139C59.2497 40.9853 60.4804 38.8067 61.5113 36.6396C61.6147 36.8426 61.7161 37.0455 61.8155 37.2482Z" fill="#7754D6"/>
  <path d="M27.8101 13.7832C26.7846 13.2113 25.7819 12.69 24.8081 12.2223C27.2706 10.8281 29.4088 9.77527 32.1422 9.41467C32.3202 9.48217 33.229 9.75777 33.4074 9.82827C31.6324 11.0275 29.4479 12.415 27.8101 13.7832Z" fill="#C7A4FF"/>
  <g filter="url(#filter2_d_2569_14015)">
    <path d="M37.7357 17.3026C35.9133 15.4351 34.0991 13.7417 32.3325 12.2494C34.4576 11.1045 36.5864 10.1534 38.6789 9.40125C40.5355 10.6248 42.3806 12.0502 44.1766 13.6632C42.1083 14.6978 39.9465 15.9166 37.7357 17.3026Z" fill="#C7A4FF"/>
  </g>
  <path d="M45.9578 10.3248C44.743 9.41396 43.5486 8.60256 42.3994 7.90242C43.5189 7.05418 44.6579 6.31705 45.7937 5.69751C46.9706 6.23506 48.1589 6.88968 49.3357 7.65652C48.239 8.43626 47.105 9.33026 45.9578 10.3248Z" fill="#C7A4FF"/>
  <g filter="url(#filter3_d_2569_14015)">
    <path d="M52.4735 23.3085C49.6799 21.7395 46.9087 20.3462 44.2197 19.1414C45.8268 16.9162 47.4493 14.8843 49.0476 13.0813C51.4743 14.0083 53.9216 15.1453 56.344 16.4931L52.4735 23.3085Z" fill="#B592FF"/>
  </g>
  <path d="M56.1151 11.913C54.6739 10.3988 53.2129 8.99843 51.7671 7.73141C53.1961 6.65202 54.5976 5.69604 55.94 4.87817C57.2756 5.92167 58.5837 7.10009 59.8359 8.40523L56.1151 11.913Z" fill="#C7A4FF"/>
  <defs>
    <filter id="filter0_d_2569_14015" x="22.167" y="15.7085" width="12.7739" height="14.2436" filterUnits="userSpaceOnUse" color-interpolation-filters="sRGB">
      <feFlood flood-opacity="0" result="BackgroundImageFix"/>
      <feColorMatrix in="SourceAlpha" type="matrix" values="0 0 0 0 0 0 0 0 0 0 0 0 0 0 0 0 0 0 127 0" result="hardAlpha"/>
      <feOffset dy="3"/>
      <feComposite in2="hardAlpha" operator="out"/>
      <feColorMatrix type="matrix" values="0 0 0 0 0 0 0 0 0 0 0 0 0 0 0 0 0 0 0.25 0"/>
      <feBlend mode="normal" in2="BackgroundImageFix" result="effect1_dropShadow_2569_14015"/>
      <feBlend mode="normal" in="SourceGraphic" in2="effect1_dropShadow_2569_14015" result="shape"/>
    </filter>
    <filter id="filter1_d_2569_14015" x="32.6279" y="21.0693" width="14.4497" height="16.76" filterUnits="userSpaceOnUse" color-interpolation-filters="sRGB">
      <feFlood flood-opacity="0" result="BackgroundImageFix"/>
      <feColorMatrix in="SourceAlpha" type="matrix" values="0 0 0 0 0 0 0 0 0 0 0 0 0 0 0 0 0 0 127 0" result="hardAlpha"/>
      <feOffset dy="3"/>
      <feComposite in2="hardAlpha" operator="out"/>
      <feColorMatrix type="matrix" values="0 0 0 0 0 0 0 0 0 0 0 0 0 0 0 0 0 0 0.25 0"/>
      <feBlend mode="normal" in2="BackgroundImageFix" result="effect1_dropShadow_2569_14015"/>
      <feBlend mode="normal" in="SourceGraphic" in2="effect1_dropShadow_2569_14015" result="shape"/>
    </filter>
    <filter id="filter2_d_2569_14015" x="32.3325" y="9.40125" width="11.8442" height="10.9014" filterUnits="userSpaceOnUse" color-interpolation-filters="sRGB">
      <feFlood flood-opacity="0" result="BackgroundImageFix"/>
      <feColorMatrix in="SourceAlpha" type="matrix" values="0 0 0 0 0 0 0 0 0 0 0 0 0 0 0 0 0 0 127 0" result="hardAlpha"/>
      <feOffset dy="3"/>
      <feComposite in2="hardAlpha" operator="out"/>
      <feColorMatrix type="matrix" values="0 0 0 0 0 0 0 0 0 0 0 0 0 0 0 0 0 0 0.25 0"/>
      <feBlend mode="normal" in2="BackgroundImageFix" result="effect1_dropShadow_2569_14015"/>
      <feBlend mode="normal" in="SourceGraphic" in2="effect1_dropShadow_2569_14015" result="shape"/>
    </filter>
    <filter id="filter3_d_2569_14015" x="44.2197" y="13.0813" width="12.1245" height="13.2272" filterUnits="userSpaceOnUse" color-interpolation-filters="sRGB">
      <feFlood flood-opacity="0" result="BackgroundImageFix"/>
      <feColorMatrix in="SourceAlpha" type="matrix" values="0 0 0 0 0 0 0 0 0 0 0 0 0 0 0 0 0 0 127 0" result="hardAlpha"/>
      <feOffset dy="3"/>
      <feComposite in2="hardAlpha" operator="out"/>
      <feColorMatrix type="matrix" values="0 0 0 0 0 0 0 0 0 0 0 0 0 0 0 0 0 0 0.25 0"/>
      <feBlend mode="normal" in2="BackgroundImageFix" result="effect1_dropShadow_2569_14015"/>
      <feBlend mode="normal" in="SourceGraphic" in2="effect1_dropShadow_2569_14015" result="shape"/>
    </filter>
    <radialGradient id="paint0_radial_2569_14015" cx="0" cy="0" r="1" gradientUnits="userSpaceOnUse" gradientTransform="translate(47.929 19.4312) rotate(107.849) scale(52.4944 52.4684)">
      <stop stop-color="#542996"/>
      <stop offset="1" stop-color="#020036"/>
    </radialGradient>
  </defs>
</svg>