<?xml version="1.0" encoding="utf-8"?>
<svg viewBox="0 0 32 32" fill="currentColor" xmlns="http://www.w3.org/2000/svg">
    <path d="M 16 5 C 12.748 5 8.312 5.051 7.412 5.131 C 6.402 5.737 4.403 8.031 4.383 8.627 L 4.383 9.627 C 4.383 10.89 5.566 12 6.637 12 C 7.92 12 8.99 10.93 8.99 9.668 C 8.99 10.93 10.031 12 11.313 12 C 12.606 12 13.605 10.931 13.605 9.668 C 13.605 10.93 14.695 12 15.988 12 L 16.01 12 C 17.303 12 18.393 10.931 18.393 9.668 C 18.393 10.93 19.403 12 20.686 12 C 21.969 12 23.01 10.931 23.01 9.668 C 23.01 10.93 24.08 12 25.363 12 C 26.434 12 27.615 10.89 27.615 9.627 L 27.615 8.627 C 27.595 8.031 25.596 5.737 24.586 5.131 C 21.444 5.02 19.252 5 16 5 z M 13.551 11.742 C 12.498 13.552 9.852 13.574 8.82 11.754 C 8.19 12.846 6.764 13.268 6.154 13.061 C 5.976 14.96 5.853 24.709 7.146 26.344 C 10.943 27.229 21.165 27.21 24.854 26.344 C 26.349 24.82 26.014 14.822 25.846 13.061 C 25.236 13.268 23.809 12.846 23.189 11.754 C 22.146 13.574 19.501 13.552 18.449 11.742 C 18.124 12.332 17.367 13.109 16 13.109 C 14.997 13.148 14.052 12.607 13.551 11.742 z"/>
</svg>
