<?xml version="1.0" encoding="UTF-8" standalone="no"?>
<!DOCTYPE svg PUBLIC "-//W3C//DTD SVG 1.1//EN" "http://www.w3.org/Graphics/SVG/1.1/DTD/svg11.dtd">
<svg width="100%" height="100%" viewBox="0 0 1024 1024" version="1.1" xmlns="http://www.w3.org/2000/svg" xmlns:xlink="http://www.w3.org/1999/xlink" xml:space="preserve" xmlns:serif="http://www.serif.com/" style="fill-rule:evenodd;clip-rule:evenodd;stroke-linejoin:round;stroke-miterlimit:2;">
    <g transform="matrix(1.335666,0,0,1.335666,27.195277,18.406228)" fill="#ffffff">
        <path d="M55.828,522.381C55.745,519.922 55.735,519.938 55.502,517.5C54.412,506.059 55.783,492.435 59.049,481.365C64.128,464.146 70.715,453.508 78.962,441.847C79.045,441.73 85.556,433.688 86.565,432.559C87.73,431.255 95.951,422.057 101.905,416.99C115.696,405.253 116.093,405.301 119.648,402.718C124.447,399.232 124.419,399.199 124.851,398.919C125.721,398.354 134.954,392.361 135.741,391.899C141.736,388.379 141.77,388.461 142.286,388.149C152.603,381.91 158.903,379.222 161.632,377.77C164.461,376.265 176.492,370.885 180.424,369.284C181.479,368.854 192.273,364.458 193.642,363.961C207.077,359.083 208.268,359.789 208.289,357.508C208.302,356.118 197.48,310.152 196.921,306.416C196.738,305.191 193.245,288.903 192.957,287.413L187.977,261.414C187.209,257.453 187.375,257.444 186.597,253.482C185.552,248.168 184.987,243.462 184.592,241.485C183.135,234.208 181.469,220.964 181.21,219.551C179.667,211.137 177.014,184.544 176.866,181.475C176.375,171.313 175.846,167.716 175.855,158.501C175.861,152.888 175.172,132.673 183.274,115.378C188.264,104.726 190.926,100.809 191.73,99.627C194.943,94.901 194.626,94.712 198.052,90.159C203.498,82.921 209.08,75.422 222.806,62.83C228.594,57.52 228.692,57.647 237.596,50.616C240.27,48.504 246.37,44.691 247.689,43.754C252.691,40.2 257.216,38.19 259.629,36.713C263.353,34.432 266.216,33.383 273.41,30.292C276.444,28.988 286.007,26.133 288.532,25.676C299.848,23.627 302.316,24.302 303.507,24.372C304.147,24.41 326.182,23.204 334.091,46.634C339.302,62.071 340.502,80.346 341.655,88.48C342.281,92.896 344.722,121.855 345.613,158.498C346.696,203.043 345.942,238.739 345.976,240.502C346.224,253.423 345.194,278.037 344.756,310.502C344.719,313.282 345.713,313.09 348.495,312.926C357.68,312.387 358.681,312.942 366.506,312.744C378.542,312.438 378.663,313.616 380.644,312.698C381.407,312.344 381.305,310.087 381.162,307.517C380.742,300.001 381.113,300.005 380.932,292.489C380.579,277.765 380.654,277.776 380.582,276.498C380.246,270.501 380.358,270.521 380.231,264.507C379.725,240.588 379.73,224.988 379.856,187.478C379.917,169.56 380.768,142.86 380.875,140.516C381.465,127.616 381.355,127.617 381.424,126.497C383.406,94.424 383.963,90.586 384.412,87.489C385.749,78.273 386.354,63.985 391.286,48.432C395.771,34.289 402.987,30.338 407.644,27.748C415.08,23.612 427.765,24.196 428.533,24.313C438.166,25.777 438.229,25.522 447.523,28.424C451.237,29.583 460.807,33.586 466.358,36.763C468.586,38.039 470.01,38.724 470.293,38.878C476.981,42.499 476.754,42.843 483.176,46.906C483.827,47.318 494.495,54.789 504.203,63.822C510.398,69.586 510.263,69.703 516.119,75.826C522.005,81.98 525.291,86.965 528.33,90.641C529.905,92.546 536.682,103.338 537.726,105.388C546.764,123.138 551.59,134.161 549.722,170.523C549.664,171.645 549.133,181.988 548.865,184.541C547.708,195.558 547.727,195.557 547.589,196.51C546.683,202.736 547.283,202.786 546.643,206.52C545.528,213.02 543.293,230.48 542.731,233.538C542.27,236.048 542.276,236.024 541.87,238.563C539.529,253.2 539.285,253.149 539.117,254.426C538.376,260.049 535.7,272.86 535.097,276.434C534.079,282.46 531.166,295.734 531.045,296.399C528.395,310.938 519.097,349.848 517.784,356.556C517.265,359.209 518.658,359.285 521.588,360.24C530.191,363.046 530.097,363.277 541.442,367.645C562.215,375.642 584.431,388.161 590.664,392.233C591.203,392.585 596.938,396.331 597.415,396.625C603.113,400.134 613.162,407.926 613.643,408.319C623.49,416.363 628.245,420.257 637.51,430.491C665.928,461.876 672.621,493.4 670.415,517.493C669.996,522.078 670.272,522.077 670.184,522.466L668.476,523.526C666.444,518.773 666.287,518.864 663.664,514.414C660.804,509.56 653.448,499.346 647.296,492.686C640.99,485.86 639.906,484.504 630.256,475.782C626.003,471.937 617.724,465.311 612.425,461.616C606.196,457.273 606.282,457.165 601.205,453.954C596.487,450.97 596.42,451.122 591.693,448.17C581.444,441.771 557.658,429.738 536.622,422.161C535.014,421.582 517.08,415.121 516.443,415.168C514.776,415.289 515.788,417.19 515.873,417.349C516.494,418.517 517.612,420.616 522.341,432.569C526.291,442.555 525.523,443.417 528.453,444.62C545.23,451.514 545.406,451.09 561.686,459.09C576.813,466.524 594.574,477.414 607.276,487.783C622.242,500.001 626.865,506.013 629.841,509.192C630.293,509.676 633.112,512.595 638.292,519.645C648.243,533.188 652.87,545.463 655.578,554.473C655.673,554.789 655.716,554.932 656.525,558.494C657.239,561.639 655.725,562.254 653.42,566.452C652.127,568.807 648.797,573.374 647.816,574.721C647.385,575.313 637.568,589.087 623.37,601.358C621.487,602.986 604.023,619.245 576.609,633.696C574.812,634.643 570.826,636.859 570.325,637.137C569.573,637.555 569.527,637.426 560.689,641.906C556.266,644.148 547.278,647.46 546.606,648.57C545.826,649.858 546.984,650.686 546.99,657.484C547,668.625 547.463,669.104 545.288,674.401C544.82,675.539 544.78,675.653 542.568,679.543C541.62,681.211 536.467,687.461 533.097,690.076C525.787,695.748 523.155,698.102 511.438,703.368C502.196,707.522 502.149,707.384 492.52,710.551C490.214,711.31 478.036,713.804 475.464,714.08C464.252,715.28 445.608,716.849 437.846,701.317C434.599,694.819 433.791,684.957 433.671,683.497C433.528,681.751 433.58,678.702 432.62,678.299C430.98,677.613 430.927,678.419 421.475,679.222C420.436,679.31 420.455,679.406 408.505,680.564C401.517,681.242 401.495,680.785 394.509,681.612C389.545,682.2 389.516,681.462 379.486,682.169C373.511,682.591 372.91,681.874 363.5,682.437C358.888,682.712 357.172,681.971 347.507,682.2C346.223,682.231 323.901,681.533 305.518,679.338C301.002,678.799 301.004,678.975 296.529,678.299C293.32,677.815 292.639,678.11 292.464,680.497C292.376,681.697 292.113,700.134 283.113,708.139C282.374,708.796 280.532,710.041 280.3,710.197C275.706,713.3 268.753,714.175 267.491,714.438C262.284,715.525 259.097,714.327 250.527,714.117C246.83,714.026 246.929,713.457 239.591,712.044C234.52,711.067 224.155,707.73 219.437,705.626C214.736,703.529 191.325,694.302 181.98,677.247C181.006,675.47 179.317,671.243 179.078,668.547C178.972,667.345 178.52,662.22 179.163,653.467C179.42,649.97 180.412,648.669 177.548,647.401C172.269,645.066 153.715,637.278 132.743,624.05C120.107,616.08 112.343,609.667 110.67,608.285C110.243,607.932 103.73,602.99 93.795,593.2C90.911,590.358 82.491,580.949 78.592,575.435C77.212,573.482 74.735,570.367 70.688,563.398C68.879,560.283 69.113,560.094 69.879,556.582C72.468,544.716 80.988,527.349 91.093,515.151C92.688,513.226 92.554,513.147 94.216,511.265C98.016,506.96 99.424,505.211 102.847,501.854C108.334,496.47 127.965,476.759 166.679,457.866C167.934,457.254 171.665,455.433 182.549,450.613C182.552,450.612 192.672,446.406 196.379,445.116C200.604,443.646 199.871,442.649 201.381,438.458C204.122,430.849 204.21,430.902 207.322,423.425C208.816,419.837 208.666,419.784 209.867,417.63C210.08,417.25 210.424,416.928 210.536,416.507C211.058,414.552 208.662,415.388 208.488,415.449C204.589,416.81 204.568,416.694 200.655,417.98C199.328,418.417 187.531,422.815 186.391,423.24C167.028,430.46 143.444,442.414 136.632,446.724C135.918,447.176 127.495,452.037 123.664,454.73C122.95,455.232 119.057,457.617 115.384,460.357C115.043,460.611 110.755,463.512 108.415,465.382C104.776,468.289 92.592,477.233 80.557,490.547C70.552,501.617 68.347,505.575 64.246,511.329C63.649,512.167 59.239,519.338 58.336,521.404C58.267,521.563 57.499,523.319 57.384,523.354C57.128,523.431 56.897,522.973 56.641,523.05L55.828,522.381ZM486.198,515.032C486.167,513.819 486.207,513.819 486.164,513.723C486.085,513.544 485.828,513.52 485.68,513.393C484.957,512.779 483.462,511.159 482.894,510.247C479.273,504.436 479.741,504.147 480.04,503.305C480.081,503.188 486.092,495.243 487.198,492.4C487.26,492.241 487.827,490.782 486.55,490.371C486.284,490.286 479.805,490.068 476.501,490.217C468.401,490.583 466.289,489.955 460.501,490.217C452.401,490.583 450.289,489.955 444.501,490.217C436.401,490.583 434.289,489.955 428.501,490.217C421.001,490.556 421.02,490.072 413.5,490.182C400.583,490.37 400.595,490.096 399.478,490.203C396.156,490.519 392.952,495.141 388.1,500.135C385.85,502.451 387.661,502.897 390.632,505.333C391.637,506.156 391.635,506.15 391.722,506.222C394.15,508.219 400.335,512.126 401.384,512.704C406.507,515.53 413.215,519.357 423.454,521.682C441.696,525.822 454.629,520.005 456.488,519.458C459.443,518.588 460.327,520.58 465.372,522.806C469.205,524.497 469.141,524.667 469.502,524.704C469.668,524.721 471.784,524.94 470.108,522.713C468.737,520.893 468.844,520.831 467.54,517.485C466.432,514.642 467.117,514.408 469.554,512.574C471.851,510.844 472.131,511.276 474.593,512.232C477.119,513.213 484.979,515.226 485.442,515.206C485.7,515.195 485.94,515.043 486.198,515.032ZM361.535,541.955C358.778,542.353 358.702,542.026 349.645,544.97C348.784,545.25 343.777,546.402 344.598,550.478C345.1,552.973 349.035,554.908 351.366,556.702C362.515,565.281 369.931,560.409 377.585,554.616C379.17,553.417 382.102,551.836 381.29,548.568C380.778,546.505 379.542,545.982 371.522,543.421C366.683,541.876 362.342,541.943 361.535,541.955ZM417.034,232.478C416.151,246.319 415.373,263.138 414.352,278.491C413.753,287.487 413.957,287.486 413.323,296.489C413.125,299.306 411.871,326.526 411.296,331.488C410.724,336.426 411.482,338.489 410.425,347.492C410.148,349.847 409.466,364.427 410.368,368.531C411.797,375.038 412.506,376.7 412.794,377.375C414.956,382.449 414.765,382.561 419.452,389.539C419.87,390.161 425.13,395.888 426.815,397.063C431.298,400.19 432.218,401.205 439.565,404.329C443.857,406.154 454.269,407.913 455.566,408.132C464.643,409.666 464.668,409.899 465.538,409.572C466.713,409.131 467.249,403.299 468.261,398.448C468.93,395.241 469.561,390.856 470.268,387.442C471.822,379.93 473.535,369.555 474.614,364.521C474.989,362.772 474.792,362.744 478.726,342.546C479.188,340.171 481.736,326.007 481.995,324.568C482.894,319.567 483.015,319.611 483.885,314.593C484.113,313.277 494.339,258.893 495.123,254.43C498.172,237.075 501.916,221.365 503.457,205.497C503.574,204.293 503.577,194.419 503.495,193.5C502.018,177.081 499.51,170.266 495.691,160.424C494.968,158.56 490.76,150.106 488.414,146.553C484.271,140.279 484.39,140.2 479.412,134.577C476.762,131.584 470.795,122.964 458.438,120.884C454.442,120.212 448.181,119.386 439.449,123.39C431.738,126.925 427.758,133.134 427.046,134.244C426.552,135.014 425.851,135.567 424.579,138.541C422.767,142.776 422.14,143.286 421.283,156.482C421.224,157.394 419.758,186.447 419.074,195.471C418.542,202.474 418.878,202.471 418.314,209.485C418.044,212.847 417.947,215.933 417.803,219.506C417.542,225.999 417.281,225.971 417.034,232.478ZM255.444,523.492C256.206,523.768 255.748,524.323 256.499,524.595C256.575,524.622 256.579,524.604 257.423,524.209C262.565,521.798 262.566,521.802 262.641,521.758C266.593,519.459 267.038,519.368 267.463,519.282C269.224,518.925 275.403,521.587 277.594,522.003C292.375,524.81 302.248,521.642 304.424,521.186C309.777,520.062 318.742,516.055 320.291,515.138C323.308,513.352 329.359,510.18 334.716,505.775C338.204,502.907 339.959,502.428 337.86,500.194C330.596,492.463 330.205,492.161 329.441,491.573C328.613,490.934 328.681,490.019 317.5,490.182C301.855,490.409 301.859,490.151 300.501,490.217C292.905,490.585 289.82,489.959 284.501,490.217C276.905,490.585 273.82,489.959 268.501,490.217C260.89,490.586 257.835,489.959 252.501,490.217C242.835,490.685 239.464,489.554 238.68,490.643C237.682,492.031 241.543,496.869 242.498,498.501C244.408,501.769 246.241,502.832 246.138,504.45C246.075,505.445 243.058,511.134 240.315,513.399C240.084,513.589 239.657,513.59 239.872,514.426C240.125,515.406 240.435,515.21 241.409,514.989C241.823,514.895 245.766,514 246.577,513.757C253.47,511.696 253.711,510.571 255.769,512.118C257.856,513.688 259.348,514.084 258.683,516.559C257.835,519.715 255.771,522.975 255.444,523.492ZM312.04,286.523L310.27,256.514C309.102,235.315 309.004,235.323 308.912,233.479C308.286,220.924 308.323,220.935 307.777,211.465C305.761,176.53 305.819,176.529 305.605,173.494C304.102,152.093 304.862,148.797 302.57,141.476C299.996,133.253 293.188,126.876 288.541,124.429C284.941,122.533 274.632,117.204 260.691,122.933C254.346,125.54 249.647,130.927 248.869,131.818C243.478,138 243.448,137.959 238.795,144.702C234.942,150.287 230.854,158.865 230.252,160.404C226.612,169.707 226.614,169.713 224.33,179.447C223.188,184.314 222.383,194.411 222.381,194.491C222.23,202.244 221.878,207.546 226.674,232.464C230.048,249.996 229.929,250.013 230.226,251.536C232.2,261.664 232.114,261.664 232.289,262.542C232.433,263.265 233.609,269.147 234.018,271.586C234.525,274.598 234.724,274.542 235.182,277.553C235.339,278.585 238.985,298.448 239.605,301.478C240.237,304.568 240.203,305.246 241.648,312.47C242.86,318.533 249.799,356.665 250.458,359.508C251.188,362.656 250.939,362.689 251.265,364.551C252.504,371.612 252.781,371.542 254.028,378.615C256.198,390.924 256.388,390.873 258.108,400.567C259.452,408.137 258.873,410.291 262.509,409.553C265.917,408.861 275.489,407.171 276.619,406.971C280.281,406.325 286.087,404.675 287.694,403.874C291.631,401.912 293.048,401.464 296.236,399.142C298.379,397.581 302.978,394.334 307.285,388.364C316.499,375.593 316.019,362.658 316.04,361.489C316.178,353.995 312.403,297.061 312.04,286.523Z"/>
    </g>
</svg>
