<?xml version="1.0" encoding="UTF-8"?> <svg xmlns="http://www.w3.org/2000/svg" id="TGA_logo2019" viewBox="0 0 459 135"><defs><style>.cls-1{fill:#fff;}</style></defs><g id="TGA_2019"><g id="thegameassembly"><path class="cls-1" d="M211.6,136.3v13.8h-2V136.3h-3v-1.7h7.9v1.7Z" transform="translate(-19.7 -15.6)"></path><path class="cls-1" d="M230.1,150.1V143h-5.4v7.2h-2V134.6h2v6.7h5.4v-6.7h2v15.6h-2Z" transform="translate(-19.7 -15.6)"></path><path class="cls-1" d="M241.9,150.1V134.5h6.6v1.7h-4.6v4.9h4.3v1.6h-4.3v5.4h4.8v1.7h-6.8Z" transform="translate(-19.7 -15.6)"></path><path class="cls-1" d="M276.9,136l-1.2,1.4a2.76,2.76,0,0,0-2.5-1.4c-2.3,0-3.5,3-3.5,6.3,0,3.6,1.2,6.3,3.7,6.3a3.09,3.09,0,0,0,1.9-.5v-4.8h-2.1v-1.7h4v7.5a5.94,5.94,0,0,1-3.8,1.2c-3.6,0-5.7-3.2-5.7-8.2,0-4.7,2.1-8.2,5.6-8.2A5.56,5.56,0,0,1,276.9,136Z" transform="translate(-19.7 -15.6)"></path><path class="cls-1" d="M293.3,150.1l-.9-3.7h-4.6l-.9,3.7h-2l4-15.6h2.6l3.8,15.6Zm-3.1-13.7h0l-2.1,8.5h4Z" transform="translate(-19.7 -15.6)"></path><path class="cls-1" d="M314.3,150.1V137.2h-.1l-3.5,12.9H309l-3.5-12.9h-.1v12.9h-1.9V134.5h3l3.3,12.4h.1l3.2-12.4h3.1v15.6Z" transform="translate(-19.7 -15.6)"></path><path class="cls-1" d="M326.1,150.1V134.5h6.6v1.7H328v4.9h4.3v1.6H328v5.4h4.8v1.7h-6.7v.3Z" transform="translate(-19.7 -15.6)"></path><path class="cls-1" d="M358.7,150.1l-.9-3.7h-4.6l-.9,3.7h-2l4-15.6h2.6l3.8,15.6Zm-3.1-13.7h0l-2.1,8.5h4Z" transform="translate(-19.7 -15.6)"></path><path class="cls-1" d="M371.9,150.5a5,5,0,0,1-4-1.9l1.1-1.5a3.5,3.5,0,0,0,2.8,1.4c1.4,0,2.2-.9,2.2-2.6s-1.1-2.3-2.5-3.1c-1.7-.9-3.1-1.9-3.1-4.4a4.09,4.09,0,0,1,4.2-4.4,4.26,4.26,0,0,1,3.5,1.5l-1.2,1.4a3,3,0,0,0-2.2-1.1,2.29,2.29,0,0,0-2.3,2.6c0,1.6,1.1,2.2,2.3,3,1.6.9,3.3,2,3.3,4.6A4,4,0,0,1,371.9,150.5Z" transform="translate(-19.7 -15.6)"></path><path class="cls-1" d="M388,150.5a5,5,0,0,1-4-1.9l1.1-1.5a3.5,3.5,0,0,0,2.8,1.4c1.4,0,2.2-.9,2.2-2.6s-1.1-2.3-2.5-3.1c-1.7-.9-3.1-1.9-3.1-4.4a4.09,4.09,0,0,1,4.2-4.4,4.26,4.26,0,0,1,3.5,1.5l-1.2,1.4a3,3,0,0,0-2.2-1.1,2.29,2.29,0,0,0-2.3,2.6c0,1.6,1.1,2.2,2.3,3,1.6.9,3.3,2,3.3,4.6A4.05,4.05,0,0,1,388,150.5Z" transform="translate(-19.7 -15.6)"></path><path class="cls-1" d="M401.2,150.1V134.5h6.6v1.7h-4.7v4.9h4.3v1.6h-4.3v5.4h4.8v1.7h-6.7v.3Z" transform="translate(-19.7 -15.6)"></path><path class="cls-1" d="M427.7,150.1V137.2h-.1l-3.5,12.9h-1.7l-3.5-12.9h-.1v12.9h-1.9V134.5h3l3.3,12.4h.1l3.2-12.4h3.1v15.6Z" transform="translate(-19.7 -15.6)"></path><path class="cls-1" d="M445.1,142c1.1.2,2.7,1.4,2.7,4a4,4,0,0,1-4.2,4.3h-4.2V134.7h3.7c1.7,0,4.2.7,4.2,3.8a3.68,3.68,0,0,1-2.2,3.5Zm-2.2-5.8h-1.6v5.1H443a2.55,2.55,0,1,0-.1-5.1Zm.2,6.6h-1.9v5.7h2a2.52,2.52,0,0,0,2.7-2.7A2.83,2.83,0,0,0,443.1,142.8Z" transform="translate(-19.7 -15.6)"></path><path class="cls-1" d="M456.7,150.1V134.5h2v13.7h4.4v1.9Z" transform="translate(-19.7 -15.6)"></path><path class="cls-1" d="M474.6,143.9v6.2h-2v-6.2l-3.8-9.4h2.1l2.7,7.3,2.7-7.3h2.1Z" transform="translate(-19.7 -15.6)"></path></g><g id="TGA"><polygon class="cls-1" points="300.1 58.4 325 58.4 341.6 41.7 300.1 41.7 300.1 58.4"></polygon><path class="cls-1" d="M333.6,95.9a33.39,33.39,0,0,1-13.8,2.8,32.79,32.79,0,0,1-33.2-33.2,33.12,33.12,0,0,1,33.2-33.3A31.64,31.64,0,0,1,343.3,42l12-11.7a52.39,52.39,0,0,0-15.9-10.9A49,49,0,0,0,320,15.6c-13.8,0-25.6,4.8-35.1,14.7a47.37,47.37,0,0,0-14.7,35.1,47.27,47.27,0,0,0,14.7,35.1c9.8,9.8,21.3,14.7,35.1,14.7a51.61,51.61,0,0,0,23.9-6,57.13,57.13,0,0,0,9.9-7,44.67,44.67,0,0,0,8-9.3l-16.6-5.4A41.21,41.21,0,0,1,333.6,95.9Z" transform="translate(-19.7 -15.6)"></path><polygon class="cls-1" points="450.7 83.2 432.3 83.2 440.5 99.8 459 99.8 450.7 83.2"></polygon><polygon class="cls-1" points="409.2 0.2 359.4 99.8 377.8 99.8 386.2 83.1 394.5 66.7 409.2 37.4 423.8 66.7 442.4 66.7 409.2 0.2"></polygon><polygon class="cls-1" points="153.8 0.2 153.8 16.9 187.1 16.9 187.1 99.8 187.1 99.8 187.1 99.8 203.8 99.8 203.8 16.9 236.9 16.9 236.9 0.2 153.8 0.2"></polygon></g><g id="icon"><path class="cls-1" d="M108,59.8l25.45-25.5A67.37,67.37,0,0,0,23.93,59.8Z" transform="translate(-19.7 -15.6)"></path><path class="cls-1" d="M103.2,148.5v-72H20.1c-.2,2.2-.4,4.3-.4,6.7a67.43,67.43,0,0,0,67.4,67.4A70.26,70.26,0,0,0,103.2,148.5Z" transform="translate(-19.7 -15.6)"></path><path class="cls-1" d="M119.9,71.8V142a67.31,67.31,0,0,0,34.6-58.8,66.22,66.22,0,0,0-10.3-35.7Z" transform="translate(-19.7 -15.6)"></path></g></g></svg> 